<svg width="1440" height="1024" viewBox="0 0 1440 1024" fill="none" xmlns="http://www.w3.org/2000/svg">
<g id="Desktop - 1">
<rect width="1440" height="1024" fill="white"/>
<g id="Group 6">
<path id="Rectangle 2" d="M578 508.624C578 493.937 593.302 484.259 606.572 490.555L735.529 551.731C740.896 554.277 747.117 554.306 752.508 551.809L885.593 490.159C898.848 484.019 914 493.698 914 508.306V637C914 648.046 905.046 657 894 657H598C586.954 657 578 648.046 578 637V508.624Z" fill="#2F668D"/>
<path id="W" d="M657.734 623.465L664.051 590.078H673.687L663.277 637H653.545L645.907 605.611L638.27 637H628.537L618.128 590.078H627.764L634.112 623.4L641.847 590.078H650.032L657.734 623.465Z" fill="white"/>
<path id="R" d="M795.56 619.823H787.857V637H778.189V590.078H795.624C801.167 590.078 805.442 591.313 808.45 593.784C811.458 596.255 812.962 599.746 812.962 604.258C812.962 607.459 812.264 610.134 810.867 612.282C809.492 614.409 807.397 616.106 804.583 617.374L814.734 636.549V637H804.357L795.56 619.823ZM787.857 611.992H795.656C798.084 611.992 799.964 611.38 801.296 610.155C802.628 608.909 803.294 607.201 803.294 605.031C803.294 602.818 802.66 601.078 801.393 599.811C800.146 598.543 798.224 597.909 795.624 597.909H787.857V611.992Z" fill="white"/>
<path id="K" d="M856.885 619.18L851.857 624.594V638H842.189V591.078H851.857V612.348L856.111 606.515L868.067 591.078H879.959L863.298 611.929L880.442 638H868.938L856.885 619.18Z" fill="white"/>
</g>
<g id="up-sideof-logo">
<g id="Group 3">
<path id="Vector 1" d="M676 382V374C676 355.222 691.222 340 710 340H782.5C801.278 340 816.5 355.222 816.5 374V382" stroke="#2F668D" stroke-width="10" stroke-linecap="round"/>
</g>
<path id="Rectangle 1" d="M578 410C578 395.641 589.641 384 604 384H884C898.359 384 910 395.641 910 410V432.934C910 444.356 902.545 454.44 891.626 457.79L748.766 501.618C743.709 503.169 738.3 503.141 733.259 501.538L596.119 457.916C585.328 454.484 578 444.463 578 433.14V410Z" fill="#2F668D"/>
<path id="RESUME" d="M667.413 447.11H662.979V457H657.412V429.984H667.45C670.642 429.984 673.103 430.696 674.835 432.118C676.567 433.541 677.433 435.551 677.433 438.148C677.433 439.992 677.031 441.532 676.227 442.769C675.435 443.993 674.229 444.97 672.608 445.7L678.453 456.74V457H672.479L667.413 447.11ZM662.979 442.602H667.469C668.867 442.602 669.949 442.249 670.716 441.544C671.483 440.826 671.866 439.843 671.866 438.594C671.866 437.32 671.501 436.318 670.771 435.588C670.054 434.858 668.947 434.493 667.45 434.493H662.979V442.602ZM702.116 445.292H691.428V452.528H703.971V457H685.862V429.984H703.934V434.493H691.428V440.932H702.116V445.292ZM725.425 449.912C725.425 448.861 725.054 448.057 724.312 447.5C723.57 446.931 722.234 446.337 720.304 445.719C718.375 445.088 716.847 444.469 715.721 443.863C712.654 442.206 711.12 439.973 711.12 437.165C711.12 435.705 711.528 434.407 712.344 433.269C713.173 432.118 714.354 431.221 715.888 430.578C717.435 429.935 719.166 429.613 721.084 429.613C723.013 429.613 724.733 429.966 726.242 430.671C727.751 431.364 728.92 432.347 729.749 433.621C730.59 434.895 731.01 436.342 731.01 437.963H725.444C725.444 436.726 725.054 435.767 724.275 435.087C723.496 434.394 722.401 434.048 720.991 434.048C719.63 434.048 718.573 434.339 717.818 434.92C717.063 435.489 716.686 436.243 716.686 437.184C716.686 438.062 717.125 438.798 718.004 439.392C718.894 439.985 720.199 440.542 721.919 441.062C725.085 442.014 727.392 443.195 728.839 444.605C730.287 446.016 731.01 447.772 731.01 449.875C731.01 452.213 730.126 454.05 728.357 455.386C726.588 456.709 724.207 457.371 721.214 457.371C719.135 457.371 717.243 456.994 715.536 456.239C713.829 455.472 712.524 454.427 711.621 453.104C710.73 451.78 710.285 450.246 710.285 448.502H715.87C715.87 451.483 717.651 452.974 721.214 452.974C722.537 452.974 723.57 452.708 724.312 452.176C725.054 451.632 725.425 450.877 725.425 449.912ZM759.423 429.984V447.778C759.423 450.735 758.495 453.073 756.64 454.792C754.797 456.511 752.273 457.371 749.069 457.371C745.915 457.371 743.41 456.536 741.555 454.866C739.699 453.196 738.753 450.902 738.716 447.982V429.984H744.282V447.815C744.282 449.584 744.703 450.877 745.544 451.693C746.397 452.497 747.573 452.899 749.069 452.899C752.199 452.899 753.788 451.254 753.838 447.964V429.984H759.423ZM775.441 429.984L782.38 449.578L789.283 429.984H796.593V457H791.008V449.615L791.565 436.868L784.273 457H780.45L773.177 436.887L773.734 449.615V457H768.167V429.984H775.441ZM821.888 445.292H811.201V452.528H823.744V457H805.634V429.984H823.707V434.493H811.201V440.932H821.888V445.292Z" fill="white"/>
</g>
<g id="SETTINGS">
<g id="Group 5">
<path id="Ellipse 1" d="M719.679 605.782C716.975 605.775 714.597 603.459 714.605 600.369C714.613 597.28 717.003 594.977 719.707 594.984C722.412 594.991 724.789 597.307 724.781 600.396C724.773 603.486 722.383 605.789 719.679 605.782Z" stroke="white" stroke-width="6"/>
<path id="Vector 3" d="M732.454 579.207L729.455 580.956C728.835 581.318 728.077 581.351 727.427 581.045C726.796 580.748 726.346 580.166 726.216 579.481L725.581 576.144C725.134 573.79 723.079 572.084 720.682 572.078L718.653 572.073C716.285 572.066 714.238 573.721 713.748 576.037L713.045 579.355C712.885 580.111 712.431 580.772 711.782 581.193C710.752 581.861 709.414 581.81 708.437 581.066L706.805 579.823C704.846 578.33 702.09 578.487 700.313 580.193L699.373 581.095C697.6 582.796 697.327 585.533 698.727 587.552L699.965 589.337C700.627 590.29 700.68 591.539 700.104 592.546C699.661 593.319 698.898 593.856 698.022 594.012L695.2 594.515C692.819 594.939 691.083 597.006 691.077 599.424L691.073 600.847C691.067 603.236 692.75 605.295 695.092 605.763L697.662 606.278C698.738 606.493 699.648 607.203 700.119 608.194C700.661 609.335 700.541 610.68 699.806 611.708L698.643 613.332C697.235 615.299 697.438 617.993 699.125 619.728L700.204 620.838C701.96 622.644 704.786 622.861 706.798 621.345L708.362 620.166C709.348 619.423 710.667 619.294 711.778 619.833C712.772 620.315 713.458 621.265 713.603 622.361L713.866 624.345C714.195 626.826 716.307 628.682 718.81 628.688L720.573 628.693C722.951 628.699 725.005 627.029 725.483 624.699L726.147 621.47C726.257 620.933 726.552 620.453 726.98 620.111C727.799 619.456 728.955 619.427 729.807 620.039L732.563 622.019C734.713 623.563 737.694 623.165 739.362 621.11L740.494 619.715C741.875 618.014 741.988 615.611 740.771 613.788L739.339 611.643C738.712 610.703 738.589 609.515 739.01 608.467C739.446 607.383 740.404 606.595 741.553 606.379L744.236 605.874C746.594 605.429 748.304 603.373 748.31 600.973L748.314 599.599C748.32 597.17 746.581 595.088 744.19 594.663L741.242 594.138C740.302 593.971 739.501 593.358 739.094 592.495C738.656 591.564 738.735 590.473 739.302 589.615L740.593 587.664C741.93 585.643 741.625 582.954 739.869 581.283L738.42 579.904C736.808 578.37 734.376 578.086 732.454 579.207Z" stroke="white" stroke-width="6" stroke-linecap="round"/>
</g>
</g>
</g>
</svg>
